<svg xmlns="http://www.w3.org/2000/svg" width="95" height="15" viewBox="0 0 95 15">
    <g fill="none" fill-rule="evenodd">
        <path fill="#0A85E0" d="M69.373 14.805v-6.69H61.97v6.69h-1.85V.427h1.85v5.98h7.403V.427h1.871v14.378zM92.105 12.11c.597-.725.895-1.69.895-2.897 0-1.18-.298-2.135-.895-2.868-.597-.732-1.417-1.098-2.46-1.098-1.058 0-1.882.346-2.472 1.037-.59.692-.884 1.668-.884 2.929 0 1.274.295 2.257.884 2.949.59.691 1.414 1.037 2.471 1.037 1.044 0 1.864-.363 2.461-1.088m-.132-8.064a4.725 4.725 0 0 1 1.597 1.139 5.44 5.44 0 0 1 1.027 1.76c.25.684.376 1.44.376 2.267s-.126 1.583-.376 2.267a5.69 5.69 0 0 1-1.027 1.78c-.448.488-.98.867-1.597 1.139a5.023 5.023 0 0 1-2.044.407c-.691 0-1.942-.112-2.626-.42-.888-.4-1.538-1.106-1.767-1.377-.23-.27-.996-1.164-.996-3.58V0h1.85v5.125a5.129 5.129 0 0 1 1.608-1.098 4.819 4.819 0 0 1 1.931-.387c.746 0 1.427.136 2.044.407M80.648 3.986v6.305c0 .962-.227 1.667-.682 2.114-.454.448-1.24.606-2.074.606-.833 0-1.62-.158-2.074-.606-.455-.447-.682-1.152-.682-2.114V3.986h-1.85v6.935c0 .664.108 1.24.325 1.729.217.488.501.894.854 1.22.34.312.733.546 1.18.702.447.155.895.233 1.342.233h1.81a4.07 4.07 0 0 0 1.342-.233c.447-.156.84-.39 1.18-.702.352-.326.637-.732.854-1.22.217-.488.325-1.065.325-1.73V3.987h-1.85z"/>
        <path fill="#FFF" d="M15.346 12.126h2.714c1.04 0 1.936-.49 2.69-1.47.64-.807 1.12-1.857 1.437-3.153.44-1.798.382-3.042-.173-3.73-.359-.444-.964-.666-1.816-.666h-2.645l-2.207 9.02zM15.382.743h5.902c1.997 0 3.274.764 3.834 2.294.412 1.132.41 2.55-.008 4.256-.454 1.856-1.21 3.42-2.27 4.693-1.374 1.658-3.043 2.487-5.004 2.487h-5.299a.405.405 0 0 1-.393-.501L15.382.742zM40.234 12.056l-.591 2.417h10.122l.592-2.417h-7.373zM43.003.743l-.596 2.434H52.662l.595-2.434zM41.696 6.084l-.587 2.4h8.016l.588-2.4h-5.267zM3.25.743L.012 13.975a.402.402 0 0 0 .39.498h9.61l.592-2.417H3.231l.874-3.573h5.268l.587-2.4H4.692l.712-2.906h7.504l.596-2.434H3.25zM39.624 5.05c.178-1.155-.065-2.165-.73-3.029C38.046.959 36.688.427 34.82.427c-2.137 0-3.976.742-5.518 2.225-1.36 1.307-2.288 2.977-2.785 5.008-.551 2.253-.374 4.034.532 5.342.838 1.202 2.428 1.803 4.195 1.803 2.905 0 4.478-.849 5.853-2.547 1.059-1.303 1.815-2.905 2.27-4.807.027-.114.047-.222.07-.334h-5.654l-.557 2.277h2.65a6.925 6.925 0 0 1-.87 1.501c-.754 1.005-1.83 1.507-2.94 1.507-1.11 0-1.887-.381-2.399-1.012-.626-.782-.733-2.014-.321-3.695.4-1.634 1.09-2.884 2.073-3.748.875-.758 1.86-1.138 2.958-1.138.467 0 .89.088 1.267.263.298.163.555.38.77.648.164.233.284.484.358.753.071.233.088.426.051.578h2.802z"/>
    </g>
</svg>
