<svg xmlns="http://www.w3.org/2000/svg" width="1164" height="1080" viewBox="0 0 1164 1080">
    <g fill="none" fill-rule="evenodd">
        <path fill="#003876" d="M0 0h1164v1080H0z"/>
        <path fill="#FFF" d="M95.725 40.112c.804 0 1.136.332.878 1.483-.211.91-1.255 5.272-1.255 5.272H83.372c-2.64 0-4.588 1.288-4.588 2.767 0 1.48 1.793 2.079 3.544 2.079h4.914c6.404 0 8.675 2.41 8.46 6.132-.379 6.63-4.738 12.152-15.883 12.152H66.666c-.4 0-.84-.332-.646-1.211l1.357-5.974c-.01-.066-.05-.018-.05-.018a7.395 7.395 0 0 1-.217.444C65.432 66.488 61.286 70 58.194 70H45.976c-4.612 0-6.682-3.807-5.762-7.977l4.88-20.966c.179-.738.402-.916.999-.916h8.899L49.844 62.51h26.993c5.088-.005 6.08-.118 7.205-1.022.51-.41.982-1.25.968-1.97-.028-1.308-1.073-1.584-2.957-1.584l-1.745-.01c-8.53 0-11.836-3.284-11.836-7.559 0-4.27 3.858-10.253 12.45-10.253zM112 36l-12.76 7.182s.514-2.354.67-3.055c.16-.742-.056-1.302-1.015-1.515L87.19 36H112z" opacity=".45"/>
        <text fill="#FFF" font-family="NotoSansCJKkr-Regular, Noto Sans CJK KR" font-size="12" opacity=".8">
            <tspan x="40" y="1042">Copyright © LSIS CO., Ltd. All Rights Reserved</tspan>
        </text>
        <g transform="translate(332 498)">
            <path fill="#FFBC0A" d="M91 66c23.196 0 42 18.804 42 42s-18.804 42-42 42-42-18.804-42-42 18.804-42 42-42zM75 94c-7.732 0-14 6.268-14 14s6.268 14 14 14 14-6.268 14-14-6.268-14-14-14z"/>
            <path fill="#A48225" d="M75 94c.68 0 1.347.048 2 .142-6.785.97-12 6.805-12 13.858 0 7.053 5.215 12.888 12 13.858-.653.094-1.32.142-2 .142-7.732 0-14-6.268-14-14s6.268-14 14-14zM91 66c23.196 0 42 18.804 42 42s-18.804 42-42 42c-.67 0-1.338-.016-2-.047 22.268-1.044 40-19.428 40-41.953 0-22.525-17.732-40.909-39.999-41.953A42.505 42.505 0 0 1 91 66z"/>
            <path fill="#7FA4D4" d="M498.65 217H1.421c-.672 0-1.296-.34-1.403-.832C-.12 215.541.53 215 1.349 215h497.196c.692 0 1.344.348 1.441.855.117.617-.526 1.145-1.337 1.145"/>
            <path fill="#DDE2E9" d="M22.873 131.455s14.11 16.068 14.203 35.968c.08 17.39-10.572 31.952-13.262 35.35v14.308h-1.436v-14.563c-3.021-3.805-13.3-17.991-13.378-34.965-.09-19.9 13.873-36.098 13.873-36.098zm412.48-28.794s18.67 21.258 18.79 47.585c.106 23.007-13.987 42.273-17.544 46.767v18.93h-1.9v-19.266c-3.995-5.032-17.595-23.8-17.698-46.259-.121-26.328 18.352-47.757 18.352-47.757zm37.362 43.99s11.42 13.003 11.494 29.107c.065 14.074-8.557 25.859-10.732 28.607v11.579h-1.162v-11.787c-2.446-3.08-10.762-14.559-10.825-28.295-.074-16.103 11.225-29.211 11.225-29.211z" opacity=".128"/>
            <g transform="translate(171)">
                <g fill="#DDE2E9">
                    <path d="M73.83 216.254h.695v-27.387h-.695z"/>
                    <path d="M80.932 192.357c.044 9.576-6.703 17.371-6.703 17.371s-6.818-7.732-6.862-17.308c-.044-9.576 6.702-17.37 6.702-17.37s6.818 7.731 6.863 17.307"/>
                </g>
                <path fill="#86A2B8" d="M7.568 208.404c1.345 4.968 5.954 8.044 5.954 8.044s2.427-4.977 1.082-9.944c-1.346-4.967-5.955-8.044-5.955-8.044s-2.427 4.977-1.081 9.944"/>
                <path fill="#AEC9E4" d="M9.545 207.337c3.692 3.589 4.143 9.107 4.143 9.107s-5.535-.302-9.227-3.891c-3.692-3.59-4.144-9.107-4.144-9.107s5.536.301 9.228 3.89"/>
                <path fill="#738A9E" d="M241.54 208.404c-1.346 4.968-5.955 8.044-5.955 8.044s-2.427-4.977-1.082-9.944c1.346-4.967 5.955-8.044 5.955-8.044s2.427 4.977 1.082 9.944"/>
                <path fill="#93A9C1" d="M239.562 207.337c-3.691 3.589-4.143 9.107-4.143 9.107s5.535-.302 9.228-3.891c3.692-3.59 4.143-9.107 4.143-9.107s-5.536.301-9.228 3.89"/>
                <rect width="160" height="200" x="12" y="16" fill="#749ED4" rx="4"/>
                <rect width="152" height="184" x="12" y="24" fill="#032244" opacity=".8" rx="4"/>
                <path fill="#40678E" d="M172 199.63c-.774-.86-1.524-1.6-1.524-1.6s-1.64 2.469-2.385 5.676c-2.491-3.018-5.722-4.348-5.722-4.348s-.745 5.358 1.689 9.846c2.433 4.488 7.124 6.408 7.124 6.408s.033-.241.063-.662c.16.172.288.299.375.382l.007.03.016-.009.102.095s.06-.091.157-.25" opacity=".2"/>
                <path fill="#B7D6ED" d="M171.615 206.168c-1.697 4.814.029 9.575.029 9.575s4.475-3.047 6.171-7.862c1.696-4.814-.029-9.574-.029-9.574s-4.475 3.046-6.171 7.86"/>
                <path fill="#D3E9FF" d="M171.77 215.743s-3.908-2.786-4.682-7.547c-.774-4.76 1.876-9.617 1.876-9.617s3.907 2.862 4.681 7.621c.775 4.76-1.876 9.543-1.876 9.543z"/>
                <path fill="#B7D6ED" d="M161.548 200.329s-.268 5.402 2.552 9.658c2.82 4.257 7.662 5.756 7.662 5.756s.27-5.403-2.551-9.66c-2.821-4.255-7.663-5.754-7.663-5.754z"/>
                <path fill="#96C3FC" d="M15.463 15.53l110-14.915A4 4 0 0 1 130 4.58v222.842a4 4 0 0 1-4.537 3.964l-110-14.916A4 4 0 0 1 12 212.506V19.494a4 4 0 0 1 3.463-3.963z"/>
                <ellipse cx="71" cy="116" fill="#E9EDF2" rx="35" ry="40"/>
                <path fill="#0050B8" d="M71 76c19.33 0 35 17.909 35 40s-15.67 40-35 40c-.671 0-1.338-.022-2-.064 18.4-1.185 33-18.612 33-39.936S87.4 77.249 69 76.064A31.107 31.107 0 0 1 71 76z" opacity=".5"/>
                <path fill="#174C88" d="M68 92c7.732 0 14 7.163 14 16 0 6.382-3.27 11.892-8 14.46V134a6 6 0 0 1-12 0v-11.54c-4.73-2.567-8-8.077-8-14.46 0-8.837 6.268-16 14-16z"/>
                <path fill="#003876" d="M68 92c1.03 0 2.034.127 3 .368-6.29 1.57-11 7.972-11 15.632 0 6.383 3.27 11.893 8 14.46V134c0 2.22 1.207 4.16 3 5.197A6 6 0 0 1 62 134v-11.54c-4.73-2.567-8-8.077-8-14.46 0-8.837 6.268-16 14-16z"/>
            </g>
            <rect width="110" height="24" x="111" y="96" fill="#FFBC0A" rx="6"/>
            <rect width="16" height="26" x="169" y="112" fill="#FFBC0A" rx="6"/>
            <rect width="16" height="20" x="195" y="112" fill="#FFBC0A" rx="6"/>
            <path fill="#A48225" d="M189 120v12a6 6 0 0 1-6 6h-4l.225-.004a6 6 0 0 0 5.77-5.771L185 132v-12h4zM215 120v6a6 6 0 0 1-6 6h-4l.225-.004a6 6 0 0 0 5.77-5.771L211 126v-6h4zM219 96a6 6 0 0 1 6 6v12a6 6 0 0 1-6 6h-4l.225-.004A6 6 0 0 0 221 114v-12a6 6 0 0 0-6-6h4z"/>
            <g>
                <path fill="#D4A181" d="M57.568 108.635c2.245 3.05 3.21 11.455.992 12.369-.885.364-2.921.062-5.079-.851l2.485 8.614-7.375 1.037.885-12.128c-1.648-1.454-2.892-3.346-3.05-5.639-.459-6.606 8.898-6.454 11.142-3.402z"/>
                <path fill="#2A2C2F" d="M49.116 119.228c-1.501-3.966-4.53-6.388-4.385-8.276.097-1.258.705-2.117 1.826-2.578.262-2.505 2.056-3.807 5.385-3.906 4.992-.149 8.278 1.46 7.61 6.111-1.19.168-2.69-.059-4.574.955-.599.322-.948 1.108-1.05 2.358l-.898.126c-1.074-1.316-2.008-1.723-2.803-1.223-.794.5-.856 1.453-.187 2.859l.032 3.44-.956.134z"/>
                <path fill="#BA8B72" d="M50.616 154.112l11.366 38.963 5.347 29.253h5.366l-5.357-68.216z"/>
                <path fill="#D4A181" d="M45.507 154.112c.793 20.24.48 31.28.303 33.12-.177 1.839-1.185 14.155-8.052 35.714h5.581c9.094-20.682 12.27-32.998 13.312-35.714 1.043-2.716 4.124-13.756 8.621-33.12H45.507z"/>
                <path fill="#7A8596" d="M50.372 154.112c2.956 13.407 8.07 34.808 15.34 64.204h7.85c.58-30.172-1.887-50.03-6.158-64.204H50.372z"/>
                <path fill="#909FB7" d="M45.468 154.112c.776 20.24-1.237 40.182-7.472 64.519h8.374c9.11-20.374 15.64-40.216 20.104-64.519H45.468z"/>
                <path fill="#2A2C2F" d="M36.962 226.958l.308-4.938c1.803.524 4.062.318 6.775-.618 2.597 1.83 5.792 3.143 9.585 3.94a2 2 0 0 1 1.512 2.505l-.01.037H37.577l-.616-.926zM66.13 226.958l.309-4.938c1.803.524 4.061.318 6.775-.618 2.596 1.83 5.791 3.143 9.584 3.94a2 2 0 0 1 1.513 2.505l-.011.037H66.747l-.616-.926z"/>
                <g>
                    <path fill="#D4A181" d="M73.397 141.024l10.808 5.782c2.759.34 5.105.916 7.038 1.727.475.323 1.093 1.025-.674 1.137-1.766.112-3.619.309-3.776.935-.158.627.999 1.187.624 2.056-.25.579-1.973-.543-5.169-3.365l-10.269-2.64 1.418-5.632zm15.453-29.023c-.975 1.47-1.935 3.06-1.527 3.562.408.502 1.556-.08 2.027.739.314.546-1.625 1.242-5.817 2.086l-8.311 6.575-3.667-4.51 11.159-5.115c1.936-1.988 3.813-3.506 5.63-4.555.545-.184 1.48-.253.506 1.218z"/>
                    <path fill="#0050B8" d="M55.462 123.882c6.73 9.15 15.515 15.655 27.813 21.972l-3.569 5.347c-13.143-2.862-20.128-4.722-24.681-13.621-1.143-2.233-2.763-9.637-3.803-13.507l4.24-.191z"/>
                    <path fill="#F2F2F2" d="M45.176 158.965l23.661-3.326c-7.645-15.506-11.95-26.281-12.919-32.325-.049-.308-.7-.771-.943-.664-1.782.782-3.795.866-6.04.252-4.347 9.762-4.734 21.084-3.759 36.063z"/>
                    <path fill="#0A78FF" d="M81.045 115.584l2.128 6.051c-8.729 7.485-17.773 13.603-26.378 14.124 5.911 15.248 7.555 28.18-.603 29.327l-12.616 1.773c-3.887-13.113-1.23-32.425 2.335-42.48.136-.383.438-1.113 1.373-1.245l3.666-.515.007.013c6.79-.897 17.966-1.212 30.088-7.048z"/>
                </g>
                <g>
                    <path fill="#D4A181" d="M153.64 107.405c1.39 3.53.147 11.897-2.25 12.203-.955.122-2.858-.698-4.72-2.14l.179 8.964-7.446-.914 4.012-11.484c-1.226-1.832-1.944-3.982-1.503-6.237 1.27-6.499 10.336-3.922 11.727-.392z"/>
                    <path fill="#191847" d="M154.16 108.977c-.021-.438-.143-.936-.239-1.36-.123-.546-.349-1.053-.606-1.536a11.014 11.014 0 0 0-1.8-2.474c-1.282-1.32-3.011-2.203-4.818-2.207a5.222 5.222 0 0 0-2.639.701c-.733.427-1.47 1.098-2.346 1.045-.953-.058-1.719-.988-2.415-1.59-.784-.68-1.642-1.209-2.622-1.494-1.64-.478-3.282-.113-4.602 1.102-1.405 1.293-2.557 3.3-1.986 5.31.106.375.262.698.509.98.225.26.583.55.641.926.062.4-.326.86-.495 1.193-.243.477-.456.984-.47 1.534-.023.904.44 1.826.969 2.486.537.672 1.246 1.107 2.03 1.363a6.195 6.195 0 0 0 1.612.324c.273.013.52-.031.79-.058.262-.026.396.058.595.222.925.765 1.974 1.145 3.145 1.192.989.04 2.145-.056 3.025-.62.976-.626 1.083-1.642 1.007-2.75.208.134.811.276.499-.2-.124-.188-.389-.291-.562-.414a2.21 2.21 0 0 1-.547-.533c-.584-.853.293-2.336 1.177-2.49 1.313-.228 1.38 1.574 2.227 2.143.487.326 1.075.034 1.51-.285.581-.428 1.017-1.036 1.405-1.66.32-.515.623-1.04.947-1.551.152-.24.656-.905.482-1.217.929-.068 1.893.429 2.614 1.012.298.242.517.494.645.872.028.08.08.317.18.339.186.04.143-.195.138-.305"/>
                    <path fill="#0050B8" d="M124.578 181.777c7.498 2.07 13.968 3.106 19.408 3.106 5.44 0 10.494-1.594 15.16-4.784-7.338-2.125-13.38-3.188-18.13-3.188-4.747 0-10.227 1.622-16.438 4.866z"/>
                    <path fill="#D4A181" d="M150.478 187.869a1.738 1.738 0 0 1-.182-.351c-1.002-2.617-17.057-30.854-18.656-36.017h18.075c1.216 3.925 6.69 28.557 7.46 33.472 2.43 7.752 7.434 32.857 8.073 34.597.672 1.83-3.11 3.735-4.117 1.486-1.603-3.58-5.423-13.482-7.124-19.53-1.595-5.668-2.893-10.768-3.53-13.657z"/>
                    <path fill="#D4A181" d="M135.69 191.316c-7.34 1.832-34.188 5.144-36.03 5.663-1.896.534-3.558-3.323-1.215-4.159 3.728-1.33 13.999-4.402 20.226-5.655 5.01-1.009 9.58-1.831 12.649-2.313-.26-8.512-1.449-28.939-.67-33.35h15.993c-.747 4.23-7.06 35.1-8.234 38.189-.373 1.103-1.484 1.59-2.72 1.625z"/>
                    <path fill="#E4E4E4" d="M96.767 191.495c-.11.005-.209.016-.298.032-.548.096-1.332.33-2.35.7l3.06 17.362c1.553.192 2.302-.209 2.249-1.202a98.815 98.815 0 0 1-.11-2.478l1.964-8.018a1 1 0 0 0-.752-1.214l-.65-.146c-.573-.826-.91-1.521-1.009-2.084a2.944 2.944 0 0 1-.014-.77 2 2 0 0 0-2.09-2.182zM159.48 222.535c-.014.109-.02.208-.02.299 0 .556.093 1.369.28 2.436h17.63c.459-1.495.195-2.303-.793-2.422a98.815 98.815 0 0 1-2.46-.323l-7.554-3.326a1 1 0 0 0-1.326.53l-.257.615c-.914.42-1.656.631-2.227.631-.216 0-.47-.04-.761-.12a2 2 0 0 0-2.512 1.68z"/>
                    <path fill="#0A78FF" d="M130.702 151.501c7.047-1.99 13.716-1.99 20.005 0 2.188 9.858 7.505 13.77 8.44 28.884-10.628 5.214-23.757-3.719-34.697 1.366-3.126-7.112 1.25-24.242 6.252-30.25z"/>
                    <g>
                        <path fill="#D4A181" d="M177.095 137.722c1.378-.108 4.955-2.115 5.46-1.556.748.826-.27 2.957-1.285 3.955-1.896 1.864-3.343 2.404-6.817 2.916-1.816.268-3.835 1.005-6.056 2.21l.306-4.72 5.045-1.986c.97-2.412 1.917-3.57 2.842-3.472.75-.239-.872 2.761.505 2.653zm-6.83-11.681c-1.055 1.415-2.1 2.951-1.716 3.475.385.523 1.57.003 2.001.847.289.563-1.697 1.152-5.957 1.768l-8.693 6.114-3.46-4.703 11.484-4.502c2.049-1.88 4.013-3.294 5.894-4.243.558-.153 1.503-.172.448 1.244z"/>
                        <path fill="#CFD8E2" d="M147.355 131.6c3.777.424 8.903.255 14.683-2.45l1.538 4.9c-4.147 3.173-9.719 5.515-14.254 4.83-3.575-.54-4.882-5.05-1.967-7.28z"/>
                        <path fill="#E9EDF2" d="M149.053 119.847c-.265 6.084 1.31 13.018 2.467 19.82 3.882 1.478 10.74 1.14 20.573-1.015 1.752 5.063 2.415 8.6 1.989 10.613-8.6 3.178-15.759 4.187-21.484 3.608-.227 3.366-1.03 6.5-2.773 9.239-3.582 5.63-19.577-1.955-25.318-1.554-2.129-11.691 5.222-15.434 6.112-22.638.975-7.889 8.882-19.246 9.826-19.13z"/>
                    </g>
                </g>
            </g>
        </g>
        <g fill="#FFF">
            <path d="M650.33 417.21v-13.92h-15.4v13.92h-3.852v-29.914h3.851v12.44h15.401v-12.44h3.893v29.914zM697.624 411.604c1.242-1.51 1.863-3.52 1.863-6.03 0-2.454-.621-4.442-1.863-5.966-1.24-1.523-2.947-2.284-5.12-2.284-2.199 0-3.912.72-5.14 2.158-1.226 1.438-1.84 3.469-1.84 6.092 0 2.652.614 4.697 1.84 6.136 1.228 1.438 2.941 2.157 5.14 2.157 2.173 0 3.88-.754 5.12-2.263m-.275-16.777a9.83 9.83 0 0 1 3.323 2.37c.901 1.015 1.613 2.236 2.136 3.66.521 1.424.782 2.997.782 4.717 0 1.721-.26 3.294-.782 4.718-.523 1.424-1.235 2.66-2.136 3.703a9.83 9.83 0 0 1-3.323 2.37c-1.283.563-2.7.845-4.251.845-1.44 0-4.042-.233-5.464-.872-1.849-.832-3.2-2.302-3.677-2.865-.478-.563-2.072-2.422-2.072-7.449v-19.617h3.85v10.663a10.67 10.67 0 0 1 3.344-2.285c1.24-.535 2.58-.804 4.019-.804 1.551 0 2.968.282 4.251.846M673.787 394.7v13.117c0 2.003-.471 3.47-1.417 4.4-.946.93-2.582 1.26-4.316 1.26-1.733 0-3.37-.33-4.316-1.26-.946-.93-1.417-2.397-1.417-4.4V394.7h-3.85v14.427c0 1.383.225 2.582.677 3.597.45 1.016 1.042 1.862 1.777 2.538a6.986 6.986 0 0 0 2.454 1.46c.93.324 1.863.487 2.793.487H669.937c.93 0 1.862-.163 2.792-.486a6.981 6.981 0 0 0 2.454-1.46c.734-.677 1.326-1.523 1.777-2.54.453-1.014.677-2.213.677-3.596v-14.427h-3.85zM537.927 411.636h5.647c2.162 0 4.027-1.02 5.596-3.06 1.332-1.677 2.33-3.863 2.99-6.56.915-3.74.795-6.327-.36-7.76-.746-.923-2.006-1.385-3.779-1.385h-5.502l-4.592 18.765zm.076-23.683h12.278c4.154 0 6.813 1.59 7.978 4.773.857 2.356.85 5.307-.017 8.853-.946 3.863-2.52 7.118-4.722 9.765-2.86 3.45-6.331 5.174-10.412 5.174h-11.024a.842.842 0 0 1-.818-1.042l6.737-27.523zM589.707 411.49l-1.23 5.028h21.06l1.23-5.028h-15.34zM595.468 387.952l-1.24 5.065h21.334l1.24-5.065zM592.749 399.065l-1.222 4.992h16.678l1.222-4.992H598.47zM512.762 387.952l-6.737 27.53a.837.837 0 0 0 .812 1.036h19.994l1.23-5.028h-15.34l1.82-7.433H525.5l1.221-4.992h-10.958l1.48-6.048h15.613l1.24-5.065h-21.334zM588.438 396.915c.37-2.404-.135-4.506-1.518-6.303-1.766-2.21-4.593-3.316-8.48-3.316-4.445 0-8.272 1.543-11.48 4.628-2.827 2.72-4.759 6.194-5.793 10.42-1.148 4.688-.779 8.393 1.106 11.114 1.744 2.501 5.052 3.752 8.728 3.752 6.044 0 9.317-1.766 12.177-5.3 2.203-2.711 3.777-6.045 4.722-10 .057-.237.1-.464.148-.695h-11.764l-1.16 4.736h5.516c-.513 1.183-1.115 2.226-1.812 3.123-1.568 2.09-3.809 3.135-6.117 3.135s-3.926-.792-4.99-2.104c-1.302-1.627-1.525-4.19-.67-7.688.833-3.4 2.27-6 4.314-7.797 1.82-1.579 3.871-2.369 6.154-2.369.972 0 1.85.183 2.636.547a5.27 5.27 0 0 1 1.6 1.348c.343.486.592 1.008.747 1.567.148.486.183.887.106 1.202h5.83z"/>
            <path d="M744.37 396.072c-.326-2.821-2.6-5.12-5.42-5.469-3.663-.455-6.765 2.26-7.018 5.765l-7.284 1.154c-1.555-10.627-7.821-19.722-16.614-25.095l7.401-11.177c1.602.584 3.4.758 5.297.29 3.716-.917 6.525-4.14 6.886-7.95a9.111 9.111 0 0 0-9.726-9.976c-4.337.305-7.93 3.758-8.396 8.08a9.076 9.076 0 0 0 2.926 7.73l-6.51 11.813a35.286 35.286 0 0 0-16.333-3.989 35.237 35.237 0 0 0-18.167 5.032l-4.108-7.463c1.577-1.351 2.5-3.443 2.126-5.762-.441-2.73-2.705-4.887-5.454-5.196a6.265 6.265 0 0 0-6.97 6.705c.172 2.293 1.683 4.286 3.78 5.23 1.709.77 3.28.65 4.656.133l4.57 7.223a35.684 35.684 0 0 0-9.008 8.6c8.014-9.028 21.07-13.48 34.802-8.729 8.628 2.985 15.474 9.784 18.472 18.407 7.716 22.196-8.554 42.874-29.654 42.874-9.401 0-17.818-4.128-23.608-10.643a35.74 35.74 0 0 0 3.68 4.282L654 438.953c-1.38-.833-3.08-1.19-4.911-.682-2.358.655-4.16 2.683-4.505 5.105a6.269 6.269 0 0 0 7.225 7.104c2.487-.396 4.53-2.327 5.077-4.785.437-1.959-.077-3.766-1.122-5.151l9.836-11.77c6.313 5.81 14.724 9.373 23.98 9.373 9.854 0 18.766-4.023 25.19-10.513l4.467 4.386a9.052 9.052 0 0 0-1.227 5.935c.548 4.054 3.84 7.31 7.902 7.795a9.115 9.115 0 0 0 10.157-10.229c-.48-3.794-4.164-7.424-7.963-7.86a9.078 9.078 0 0 0-6.725 1.914l-4.879-3.83c5.312-6.198 8.527-14.244 8.527-23.048 0-1.172-.06-2.33-.172-3.474l7.344-.546c.797 2.543 3.143 4.4 5.95 4.4a6.265 6.265 0 0 0 6.22-7.005"/>
            <text font-family="NotoSansCJKkr-Light, Noto Sans CJK KR" font-size="30" font-weight="300" letter-spacing="-.529" opacity=".5" transform="translate(418 336)">
                <tspan x="0" y="35">Welcome to LSIS</tspan>
            </text>
        </g>
    </g>
</svg>
