<svg xmlns="http://www.w3.org/2000/svg" xmlns:xlink="http://www.w3.org/1999/xlink" width="1164" height="1080" viewBox="0 0 1164 1080">
    <defs>
        <path id="a" d="M1.02.908h14.672V14.29H1.02z"/>
        <path id="c" d="M1.544.52h8.568v13.258H1.544z"/>
        <path id="e" d="M1.544.52h8.568v13.258H1.544z"/>
    </defs>
    <g fill="none" fill-rule="evenodd">
        <path fill="#003876" d="M0 0h1164v1080H0z"/>
        <path fill="#FFF" d="M95.725 40.112c.804 0 1.136.332.878 1.483-.211.91-1.255 5.272-1.255 5.272H83.372c-2.64 0-4.588 1.288-4.588 2.767 0 1.48 1.793 2.079 3.544 2.079h4.914c6.404 0 8.675 2.41 8.46 6.132-.379 6.63-4.738 12.152-15.883 12.152H66.666c-.4 0-.84-.332-.646-1.211l1.357-5.974c-.01-.066-.05-.018-.05-.018a7.395 7.395 0 0 1-.217.444C65.432 66.488 61.286 70 58.194 70H45.976c-4.612 0-6.682-3.807-5.762-7.977l4.88-20.966c.179-.738.402-.916.999-.916h8.899L49.844 62.51h26.993c5.088-.005 6.08-.118 7.205-1.022.51-.41.982-1.25.968-1.97-.028-1.308-1.073-1.584-2.957-1.584l-1.745-.01c-8.53 0-11.836-3.284-11.836-7.559 0-4.27 3.858-10.253 12.45-10.253zM112 36l-12.76 7.182s.514-2.354.67-3.055c.16-.742-.056-1.302-1.015-1.515L87.19 36H112z" opacity=".45"/>
        <text fill="#FFF" font-family="NotoSansCJKkr-Regular, Noto Sans CJK KR" font-size="12" opacity=".8">
            <tspan x="40" y="1042">Copyright © LSIS CO., Ltd. All Rights Reserved</tspan>
        </text>
        <g transform="translate(270 483)">
            <path fill="#084787" fill-rule="nonzero" d="M55.548 140.438c-.134-31.146-22.258-56.3-22.258-56.3s-21.894 25.346-21.74 56.491c.114 26.59 16.252 48.776 20.975 54.71v22.8h2.257v-22.397c4.206-5.303 20.9-28.102 20.766-55.304zM597.312 133.104c-.146-33.935-24.28-61.341-24.28-61.341s-23.885 27.615-23.718 61.55c.125 28.97 17.73 53.143 22.883 59.61v24.84h2.461V193.36c4.569-5.777 22.78-30.618 22.654-60.256z"/>
            <path fill="#014D9A" fill-rule="nonzero" d="M106.548 165.743c0-18.561-15.22-33.604-34-33.604s-34 15.043-34 33.604c0 18.123 14.509 32.88 32.692 33.565v16.83h2.636v-16.83c18.164-.684 32.672-15.442 32.672-33.565z"/>
            <path fill="#003C7D" fill-rule="nonzero" d="M155.734 152.139h-13.39c-2.08 0-3.796 1.695-3.796 3.752v37.429c0 2.057 1.715 3.752 3.796 3.752h6.05v19.067h1.31v-19.067h6.049c2.08 0 3.795-1.695 3.795-3.752V155.89c-.019-2.076-1.714-3.752-3.814-3.752z"/>
            <g fill-rule="nonzero">
                <path fill="#00458C" d="M500.312 168.88c-.125-19.985-18.207-36.117-18.207-36.117s-17.917 16.278-17.792 36.265c.104 17.053 13.297 31.299 17.167 35.112v14.623h1.852v-14.372c3.413-3.415 17.084-18.038 16.98-35.51z" opacity=".687"/>
                <path fill="#034A92" d="M507.316 169.763H493.29c-2.18 0-3.976 1.88-3.976 4.163v17.52c0 2.282 1.796 4.163 3.976 4.163h6.337v21.154H501v-21.154h6.338c2.18 0 3.976-1.881 3.976-4.163v-17.52c-.02-2.303-1.817-4.163-3.997-4.163z"/>
                <path fill="#0452A0" d="M524.135 153.763H509.47c-2.28 0-4.157 1.869-4.157 4.137v33.705c0 2.268 1.878 4.137 4.157 4.137h6.625v21.021h1.435v-21.021h6.626c2.279 0 4.157-1.869 4.157-4.137V157.9a4.187 4.187 0 0 0-4.178-4.137z"/>
            </g>
            <path fill="#205795" fill-rule="nonzero" stroke="#5D8DC1" stroke-width=".5" d="M446.064 217.497h-290.03V19.653c0-5.445 4.423-9.867 9.868-9.867h270.312c5.445 0 9.867 4.422 9.867 9.867v197.844h-.017z"/>
            <path fill="#00294D" fill-rule="nonzero" d="M159 39h283.266v177.815H159z"/>
            <circle cx="168.5" cy="24.5" r="4.5" fill="#8BC3FF" fill-rule="nonzero" opacity=".722"/>
            <circle cx="182.5" cy="24.5" r="4.5" fill="#8BC3FF" fill-rule="nonzero" opacity=".722"/>
            <circle cx="197.5" cy="24.5" r="4.5" fill="#8BC3FF" fill-rule="nonzero" opacity=".722"/>
            <path fill="#96C3FC" fill-rule="nonzero" d="M310.04 116.954h8.064"/>
            <path fill="#5291CE" fill-rule="nonzero" d="M324.364 123.11h-8.67v-22.474c0-8.081-6.573-14.653-14.654-14.653-8.08 0-14.653 6.572-14.653 14.653v22.474h-8.67v-22.474c0-12.85 10.456-23.324 23.323-23.324 12.868 0 23.324 10.457 23.324 23.324v22.474z"/>
            <path fill="#83BAFF" fill-rule="nonzero" d="M324.954 173.121h-47.792c-4.249 0-7.734-3.485-7.734-7.734V121.22c0-4.249 3.485-7.734 7.734-7.734h47.792c4.248 0 7.734 3.485 7.734 7.734v44.167c0 4.249-3.486 7.734-7.734 7.734z"/>
            <path fill="#00294D" fill-rule="nonzero" d="M308.792 141.092c0-4.265-3.468-7.734-7.734-7.734s-7.734 3.469-7.734 7.734a7.727 7.727 0 0 0 4.11 6.833v5.15a3.623 3.623 0 0 0 3.624 3.624 3.623 3.623 0 0 0 3.624-3.624v-5.15a7.727 7.727 0 0 0 4.11-6.833z"/>
            <path fill="#001C2D" fill-rule="nonzero" d="M298.977 153.075v-5.15a7.727 7.727 0 0 1-4.11-6.833c0-3.97 3-7.23 6.85-7.682-.226-.017-.434-.052-.66-.052-4.265 0-7.733 3.469-7.733 7.734a7.727 7.727 0 0 0 4.11 6.833v5.15a3.623 3.623 0 0 0 3.624 3.624c.26 0 .503-.034.745-.104a3.576 3.576 0 0 1-2.826-3.52z"/>
            <path fill="#025FD0" fill-rule="nonzero" d="M151.127 116.341l2.428 1.162s2.48-.382 4.509 3.884c0 0 2.306-1.751 1.768 5.047-1.335 17.167-.19 25.04-.19 25.04s-2.654-3.902-3.503-9.035c-1.7-10.04-3.607-24.45-5.012-26.098z"/>
            <path fill="#005BB5" fill-rule="nonzero" d="M157.214 125.584l2.549 2.133-.139 2.237-2.237-1.942z"/>
            <path fill="#EDB7B7" fill-rule="nonzero" d="M194.185 117.173a1.458 1.458 0 0 0-1.89-.815l-3.66 1.7-6.433 1.96 1.422 3.572 6.191-3.035 3.555-1.474a1.484 1.484 0 0 0 .815-1.908z"/>
            <path fill="#EDB7B7" fill-rule="nonzero" d="M194.895 118.044l-2.29.608c-.246.077-.852-.82-1.003-1.317-.152-.497.398-.898.644-.974l5.36-2.578c.247-.076 1.118-.343.948.248-.01.042-.08.305-.39.515-.824.558-2.518 1.425-3.096 1.91-.292.254-.597.578-.597.999 0 .42.424.59.424.59z"/>
            <path fill="#EDB7B7" fill-rule="nonzero" d="M196.65 118.933h-1.31l-3.21.563c-.297 0-.381-.958-.381-1.333s.254-.687.55-.666l4.69.458c.295 0 .76.333.76.708 0 .375-.803.27-1.099.27z"/>
            <path fill="#025FD0" fill-rule="nonzero" d="M187.543 122.913c.538-3-.884-5.323-1.335-5.133-5.826 2.654-13.751 2.914-15.156 2.914-1.405 0-6.988-.694-8.046-1.405-1.231-.815-4.994-4.751-8.948-3.607-2.255.659-.07 6.867 1.3 8.913 1.37 2.03 2.099 3.278 5.03 3.729 2.618.416 10.317-.208 12.069-.642 0 .017 5.34-1.162 15.086-4.769z"/>
            <path fill="#E5E5E5" fill-rule="nonzero" d="M185.601 117.277l2.03 6.4 1.664-.417-2.116-6.225z"/>
            <path fill="#EDB7B7" fill-rule="nonzero" d="M164.584 180.468s.85-4.82-5.064-8.688l-4.404 7.232s4.196 1.716 3.641 3.502c0 0-2.306 6.607 4.388 17.619 0 0 3.97 7.318 5.514 10.838 0 0 4.422.815 3.884-3.156.018.017-7.23-19.197-7.96-27.347z"/>
            <path fill="#004EAE" fill-rule="nonzero" d="M145.613 162.347s9.607 18.295 9.867 18.121c.104-.07 7.873 26.966 9.347 25.804.988-.78 3.225-2.012 7.075-3.78-.677-6.972-4.89-22.544-5.844-26.03a3.679 3.679 0 0 0-.624-1.283c-2.099-2.774-9.486-21.693-12.434-27.034l-7.387 14.202z"/>
            <path fill="#FBBEBE" fill-rule="nonzero" d="M104.08 182.254s-3.26 1.561-9.52 2.064l1.926 4.942s5.271-1.734 13.04-1.82c.017-.018 9.486-2.064-5.445-5.186z"/>
            <path fill="#025FD0" fill-rule="nonzero" d="M136.769 141.694l-9.572 34.89-25.873 5.618.59 7.075 30.988-2.705a4.85 4.85 0 0 0 3.78-2.393l16.283-31.006s2.532-4.23 1.127-8.48l-17.323-3z"/>
            <path fill="#D9DEE2" fill-rule="nonzero" d="M155.913 119.896s-.728-.07.867-.07l.52.07c1.405 4.907.434 9.381-.225 14.462l-1.3 15.347s-2.688 4.006-2.914.018c-.416-8.706-.537-23.515 3.052-29.827z"/>
            <path fill="#FBBEBE" d="M163.89 105.624c.815 3.295-.78 10.353-3.381 10.596-.85 0-2.359-.208-3.833-1.7l-.953 7.266-6.434-1.647 4.856-9.763c-.868-1.77-1.249-3.763-.607-5.705 1.89-5.636 9.537-2.342 10.352.953z"/>
            <g fill-rule="nonzero">
                <path fill="#2F2E41" d="M155.514 101.514s1.058-4.144 4.717-2.635c0 0 .971.433 2.705 1.855.243.208.503.434.746.66.676.64 3.035 2.635 4.82.831 0 0 .105 2.48-2.6 4.44 0 0-6.104 4.214-10.492-.78 0 0-1.387 1.872-1.248 4.82 0 0-.26-.052-.78-.277-.07-.382-.209-1.11-.313-2.012-1.907-3.45-.468-7.44 2.445-6.902z"/>
                <path fill="#2F2E41" d="M155.705 102.884s.226-2.74-1.56-2.844c0-.017 1.682.85 1.56 2.844z"/>
                <path fill="#2F2E41" d="M156.07 101.93s-2.134-1.785-3.209-.346c0 0 1.058-.885 3.208.347z"/>
                <path fill="#343449" d="M155.514 101.514s2.844-4.317 6.92.78c0 0 2.618 2.931 6.034-.051 0 0-3.537 5.375-7.751.173 0 0-2.012-3.087-5.203-.902zM157.595 104.133s2.81 3.936 7.214 1.266c0-.017-3 1.89-7.214-1.266z"/>
                <path fill="#343449" d="M155.514 101.514s-3.537-.138-1.526 6.226c0-.017-1.49-3.642 1.526-6.226z"/>
                <path fill="#223" d="M155.376 102.815s-2.064 3.364 3.242 5.168c0 .017-4.3-1.44-3.242-5.168z"/>
            </g>
            <path fill="#FBBEBE" fill-rule="nonzero" d="M163.231 108.971s1.838 2.306 1.162 3.121c0 0-.503.816-1.543-.069-.815-.694.381-3.052.381-3.052z"/>
            <path fill="#EAB0B0" fill-rule="nonzero" d="M156.694 114.52l-.191 1.474s-1.44-1.456-1.717-3.78c0-.017.85 1.422 1.908 2.306zM154.457 108.19s.069 2.03 1.04 1.804c0 0-1.058 1.249-1.04-1.803z"/>
            <path fill="#2F2E41" fill-rule="nonzero" d="M154.457 108.052s.624-1.907 2.133-1.023c0 0-.677-.382-1.44-1.769-.763-1.387-.693 2.792-.693 2.792z"/>
            <path fill="#0978FF" fill-rule="nonzero" d="M151.908 114.867s2.375 3.468 4.89 4.942l.07 1.249s-2.81 18.867.45 31.543c-16.266 1.942-23.723-2.34-25.595-4.179-.85-16.093 10.508-34.3 20.185-33.555z"/>
            <path fill="#C2C8CC" fill-rule="nonzero" d="M157.214 119.827l-.85-2.827-.243 1.82 1.024 1.076z"/>
            <path fill="#F2F2F2" fill-rule="nonzero" d="M156.364 117l.85 2.827 1.214.728-1.994-4.11z"/>
            <path fill="#025FD0" fill-rule="nonzero" d="M149.775 114.572l5.185 7.596 2.115-2.133-1.734 1.196z"/>
            <path fill="#0978FF" fill-rule="nonzero" d="M151.908 114.867s-4.214-2.202-12 5.012l-12.226 7.734s-3.988 1.925-1.925 6.537l9.555 13.977 3.815-3.59-5.202-10.439s3.954-1.977 9.347-5.688l8.636-13.543z"/>
            <path fill="#F2F2F2" fill-rule="nonzero" d="M151.717 114.347H149.6l5.74 6.884 1.96-1.335z"/>
            <path fill="#025FD0" fill-rule="nonzero" d="M135.572 133.197s5.775-2.758 10.353-5.428c0 0-10.994 6.52-6.92 16.543.018-.104-4.092-7.509-4.317-8.688.52-.988.728-2.08.884-2.427z" opacity=".58"/>
            <path fill="#F2F2F2" fill-rule="nonzero" d="M134.185 148.491l5.272-4.543 1.439 1.543-5.358 4.197z"/>
            <path fill="#DDD" fill-rule="nonzero" d="M167.688 213.243c-.208 1.023-.33 2.15 1.144 1.751l12.711-3.347s4.266-1.161 5.047-3.052c0 0 .745-1.283-.677-1.647l-4.439.52-7.595-.71s-1.162-1.96-1.648.329c0 0-2.115 2.965-5.376 2.774-.017.018-.104 2.116.833 3.382zM94.405 182.983c-.833-.503-1.77-.92-1.856.485l-.85 12.087s-.242 4.075 1.162 5.306c0 0 .902 1.023 1.63-.104l.867-4.023 2.879-6.433s2.064-.451.19-1.544c0 0-1.941-2.722-.832-5.514 0 .017-1.803-.677-3.19-.26z"/>
            <g stroke="#FFBC0A" stroke-linecap="round" stroke-width="3.5" transform="translate(143.197 131.74)">
                <path d="M17.156 17.41L52.827.312M40.272 9.399l6.138-2.948M45.092 4.023l4.804 8.809M39.092 7.092l2.931 5.74"/>
                <circle cx="9.613" cy="22.578" r="8.913"/>
            </g>
            <g fill-rule="nonzero">
                <path fill="#235CA2" d="M544.973 208.247C541.374 212.112 541 218 541 218s5.45-.382 9.027-4.247C553.626 209.888 554 204 554 204s-5.429.382-9.027 4.247z"/>
                <path fill="#356CAF" d="M547.62 209.467c-1.322 5.244-6.005 8.533-6.005 8.533s-2.558-5.2-1.235-10.467c1.322-5.266 6.005-8.533 6.005-8.533s2.558 5.222 1.235 10.467z"/>
            </g>
            <g fill-rule="nonzero">
                <path fill="#235CA2" d="M122.334 208.247c3.598 3.865 3.972 9.753 3.972 9.753s-5.45-.382-9.027-4.247c-3.598-3.865-3.973-9.753-3.973-9.753s5.43.382 9.028 4.247z"/>
                <path fill="#356CAF" d="M119.686 209.467c1.322 5.244 6.005 8.533 6.005 8.533s2.558-5.2 1.236-10.467c-1.323-5.266-6.005-8.533-6.005-8.533s-2.559 5.222-1.236 10.467z"/>
            </g>
            <g fill-rule="nonzero">
                <path fill="#235CA2" d="M426.744 207.396c1.248 5.242 5.932 8.604 5.932 8.604s2.648-5.132 1.4-10.396c-1.247-5.242-5.93-8.604-5.93-8.604s-2.649 5.154-1.402 10.396z"/>
                <path fill="#356CAF" d="M428.521 206.35c3.593 3.865 3.89 9.65 3.89 9.65s-5.518-.486-9.111-4.35c-3.594-3.865-3.89-9.65-3.89-9.65s5.517.508 9.111 4.35z"/>
            </g>
            <path fill="#FBBEBE" fill-rule="nonzero" d="M143.197 153.909c1.005-.746 1.005-1.995.45-2.792l-3.26-3.729-.605-1.02-2.817 2.205.838.966 2.567 3.936c.572.815 1.855 1.145 2.827.434z"/>
            <path stroke="#3377CD" stroke-linecap="round" stroke-linejoin="round" stroke-width="3" d="M598.821 217H.85"/>
        </g>
        <g>
            <path fill="#C4A18A" d="M631.11 630.954l-6 1.908-2.066-.54s-.515-.17-1.28-.082a1.94 1.94 0 0 0-.199.036c-.413.092-1.81.45-.529.768l1.096.328c.2.06.275.305.143.466-.293.357-.846.882-1.657 1.05l-1.977.407c-.197.042-.879.071-.37.82 0 0 1.224 1.476 3.284 1.144 0 0 1.954-.17 4.078-2.125l6.195-1.129-.718-3.051zM632.55 610.119l-5.912-1.259-1.462-1.431s-.351-.388-1.03-.677a1.776 1.776 0 0 0-.182-.065c-.39-.121-1.722-.484-.806.387l.727.536c.213.294.5.535-.07.716-.425.133-1.127.332-1.882.088 0 0-1.663-.54-1.842-.601-.291-.095-.774.024-.707.89 0 0-.003 1.474 1.712 2.012 0 0 2.201.907 4.9.287l5.702 2.003.851-2.886z"/>
            <path fill="#DB4642" d="M660.478 619.678s-16.859-.99-32.09-6.66l.706-4.529 15.336 3.496 11.968-2.493s8.429 1.462 4.08 10.186"/>
            <path fill="#C4A18A" d="M634.287 655.162l-3.975 7.456a3.736 3.736 0 0 0-.438 1.638l-.93 31.038 3.331-.28 4.114-28.533 7.03-10.936-9.132-.383zM652.525 661.032l2.442 5.737a12.899 12.899 0 0 0 1.825 3.046l17.872 22.246 2.1-3.122-13.668-22.403-4.46-9.765-6.111 4.261z"/>
            <g transform="translate(643.833 589.814)">
                <mask id="b" fill="#fff">
                    <use xlink:href="#a"/>
                </mask>
                <path fill="#191847" d="M15.691 6.952a5.263 5.263 0 0 0-.267-1.835c-.35-1.006-1.059-1.867-1.905-2.505C11.935 1.426 9.887.907 7.93.907 3.756.907.181 3.82 1.193 7.6c.216.685.498.975.705 1.545a6.335 6.335 0 0 0 6.184 4.968c.073 0 .143-.008.216-.01.296.117.616.188.974.188.667 0 1.304-.064 1.883-.259 2.337-.778 3.768-3.036 4.304-5.338.019-.081.036-.162.053-.243.102-.49.169-.994.18-1.499" mask="url(#b)"/>
            </g>
            <path fill="#CEAC91" d="M656.536 596.91c.138 1.968-.687 3.721-1.908 5.154l2.187 10.2h-6.355l1.076-7.617c-1.42 1.178-2.798 1.79-4.19 1.33-2.721-1.276-2.166-7.767-.632-10.626 1.535-2.86 9.424-4.108 9.822 1.558"/>
            <path fill="#CEAC91" d="M645.75 598.69s-1.794 2.26-1.142 3.052c0 0 .49.805 1.516-.069.802-.683-.374-2.982-.374-2.982"/>
            <path fill="#C9A68F" d="M651.536 604.648s.75-.29 1.92-1.437c0 0-.897 2.086-2.111 2.796l.19-1.36z"/>
            <path fill="#191847" d="M655.5 593.15s-6.688-1.603-9.4 1.704c0 0-.665 1.929 5.229 4.224.13-.539.485-.931.909-.931.534 0 .966.618.966 1.378 0 .125-.093.799-.229 1.045 0 0 1.416.394 1.652 1.495 0 0 1.222-.63 2.189-2.725 0 0 1.016-4.071-1.316-6.19"/>
            <path fill="#F55547" d="M650.36 610.001l5.823-1.049s3.627 1.909 3.532 7.828l-6.109 15.665s4.2 15.355 16.13 28.241c0 0-10.786 4.581-17.371 3.15l-.097-1.624s-10.69-.38-20.616-4.295l10.88-27.003.645-7.247s-.262-2.88 2.316-6.315l4.867-7.35z"/>
            <path fill="#DB4642" d="M652.269 662.213s-2.673-16.704-3.245-24.912c0 0 2.978 19.51 9.171 26.601 0 0-2.68.698-5.83-.067l-.096-1.622z"/>
            <path fill="#191847" d="M669.513 632.412a6.639 6.639 0 0 0 3.746-1.635c1.729-1.546 2.507-4.009 2.15-6.217-.46-2.855-2.882-3.925-4.928-5.542-2.432-1.924-3.24-5.261-3.513-8.408-.138-1.598-.18-3.23-.662-4.746-.639-2.008-2.037-3.663-3.725-4.859-.8-.566-1.662-1.055-2.594-1.383-3.255-1.143-2.605 1.506-2.605 1.506 2.996 3.65 2.075 9.462 1.352 13.862-.763 4.65.881 9.326 3.46 13.116.771 1.135 1.64 2.222 2.738 3.043a6.408 6.408 0 0 0 4.581 1.263"/>
            <path fill="#FF4133" d="M657.658 602.742a.43.43 0 0 1-.327-.71c1.064-1.246 1.61-2.868 1.615-2.884a.439.439 0 0 1 .542-.274.43.43 0 0 1 .276.543c-.024.074-.603 1.796-1.78 3.174a.424.424 0 0 1-.326.151"/>
            <path fill="#222256" d="M660.32 601.025s5.497 3.553 4.385 10.912c-1.113 7.36 6.164 10.633 6.164 10.633s-7.92-2.394-6.97-10.745c0 0 1.192-6.96-3.579-10.8M661.259 619.75s.477 6.836 6.644 10.04c0 0-4.443-3.219-6.644-10.04"/>
            <path fill="#DDD" d="M633.743 697.155c.384.744.706 1.564-.503 1.58l-10.409.127s-3.508.007-4.503-1.264c0 0-.84-.82.17-1.399l3.502-.553 5.66-2.147s.48-1.75 1.328-.09c0 0 1.502 1.652 3.95.834 0 0 1.425 1.093.805 2.912"/>
            <g transform="translate(669.667 686.259)">
                <mask id="d" fill="#fff">
                    <use xlink:href="#c"/>
                </mask>
                <path fill="#DDD" d="M8.915 1.313c.754.02 1.545.117 1.035 1.083L5.536 10.71s-1.519 2.784-2.959 3.026c0 0-1.014.311-1.033-.744l1.08-3.018.75-5.421s-1.179-1.139.507-1.094c0 0 1.96-.474 2.373-2.771 0 0 1.488-.656 2.661.625" mask="url(#d)"/>
            </g>
            <g transform="translate(669.667 686.259)">
                <mask id="f" fill="#fff">
                    <use xlink:href="#e"/>
                </mask>
                <path fill="#DDD" d="M8.915 1.313c.754.02 1.545.117 1.035 1.083L5.536 10.71s-1.519 2.784-2.959 3.026c0 0-1.014.311-1.033-.744l1.08-3.018.75-5.421s-1.179-1.139.507-1.094c0 0 1.96-.474 2.373-2.771 0 0 1.488-.656 2.661.625" mask="url(#f)"/>
            </g>
            <path fill="#F55547" d="M643.38 623.624s-10.853 6.47-15.54 7.61l-.003 4.55s10.716-.62 14.765-3.785c4.049-3.163.778-8.375.778-8.375"/>
        </g>
        <g>
            <path fill="#FFF" d="M640.497 417.278v-12.732H626.41v12.732h-3.522v-27.36h3.522v11.378h14.086v-11.379h3.561v27.36zM683.754 412.15c1.136-1.38 1.703-3.219 1.703-5.515 0-2.245-.567-4.063-1.703-5.457-1.135-1.393-2.696-2.09-4.683-2.09-2.011 0-3.579.659-4.702 1.974-1.121 1.316-1.682 3.174-1.682 5.573 0 2.425.56 4.296 1.682 5.612 1.123 1.315 2.69 1.973 4.702 1.973 1.987 0 3.548-.69 4.683-2.07m-.252-15.345a8.99 8.99 0 0 1 3.04 2.168c.824.928 1.475 2.045 1.953 3.347.477 1.303.715 2.742.715 4.315 0 1.574-.238 3.012-.715 4.315-.478 1.303-1.13 2.432-1.954 3.387a8.99 8.99 0 0 1-3.039 2.167c-1.173.516-2.47.774-3.888.774-1.317 0-3.697-.213-4.997-.798-1.691-.761-2.927-2.106-3.364-2.62-.436-.515-1.895-2.216-1.895-6.813v-17.943h3.522v9.753a9.76 9.76 0 0 1 3.058-2.09c1.134-.49 2.36-.735 3.676-.735 1.419 0 2.715.258 3.888.773M661.952 396.69v11.996c0 1.832-.432 3.174-1.296 4.025-.866.851-2.362 1.152-3.948 1.152-1.586 0-3.083-.3-3.947-1.152-.866-.851-1.297-2.193-1.297-4.025V396.69h-3.521v13.196c0 1.264.206 2.36.62 3.29.411.928.952 1.702 1.624 2.32a6.39 6.39 0 0 0 2.245 1.337 7.75 7.75 0 0 0 2.554.444h3.444c.85 0 1.703-.148 2.554-.444.851-.297 1.6-.743 2.245-1.336.67-.619 1.213-1.393 1.625-2.322.414-.928.62-2.025.62-3.29V396.69h-3.522zM537.689 412.179h5.166c1.977 0 3.683-.933 5.117-2.8 1.22-1.533 2.13-3.532 2.735-5.998.837-3.421.728-5.788-.33-7.098-.681-.845-1.833-1.267-3.455-1.267h-5.033l-4.2 17.163zm.07-21.661h11.23c3.8 0 6.231 1.454 7.297 4.365.783 2.155.778 4.854-.016 8.098-.865 3.533-2.304 6.51-4.319 8.931-2.616 3.155-5.79 4.732-9.523 4.732h-10.083a.77.77 0 0 1-.748-.953l6.161-25.173zM585.05 412.046l-1.126 4.598h19.262l1.125-4.598h-14.03zM590.319 390.517l-1.135 4.632H608.697l1.134-4.632zM587.83 400.682l-1.116 4.565H601.968l1.118-4.565h-10.023zM514.673 390.517l-6.163 25.18a.766.766 0 0 0 .744.948h18.287l1.125-4.6h-14.03l1.664-6.798h10.023l1.117-4.566h-10.023l1.354-5.532h14.28l1.134-4.632h-19.512zM583.889 398.715c.338-2.2-.124-4.121-1.389-5.765-1.616-2.022-4.2-3.033-7.756-3.033-4.065 0-7.566 1.411-10.5 4.233-2.586 2.488-4.353 5.665-5.298 9.53-1.05 4.288-.713 7.677 1.011 10.165 1.595 2.289 4.621 3.432 7.983 3.432 5.528 0 8.521-1.615 11.137-4.846 2.015-2.48 3.455-5.53 4.32-9.148.051-.216.09-.424.135-.635h-10.76l-1.06 4.332h5.044c-.47 1.082-1.02 2.036-1.657 2.856-1.434 1.912-3.484 2.868-5.595 2.868-2.11 0-3.591-.725-4.564-1.925-1.191-1.488-1.395-3.832-.612-7.031.761-3.111 2.076-5.488 3.945-7.132 1.664-1.444 3.54-2.167 5.629-2.167.889 0 1.692.167 2.41.5a4.82 4.82 0 0 1 1.465 1.233c.313.445.54.923.682 1.434.136.444.168.81.097 1.1h5.333z"/>
            <path fill="#83BAFF" d="M726.509 397.944c-.298-2.58-2.378-4.682-4.957-5.002-3.35-.416-6.188 2.067-6.419 5.272l-6.663 1.056c-1.421-9.72-7.153-18.039-15.195-22.952l6.77-10.224a8.216 8.216 0 0 0 4.844.266c3.399-.84 5.968-3.787 6.299-7.272a8.333 8.333 0 0 0-8.897-9.124c-3.966.279-7.253 3.437-7.678 7.391a8.301 8.301 0 0 0 2.676 7.07l-5.955 10.804a32.274 32.274 0 0 0-14.939-3.648 32.23 32.23 0 0 0-16.616 4.602l-3.757-6.826c1.442-1.236 2.287-3.15 1.944-5.27-.403-2.498-2.474-4.47-4.988-4.753a5.73 5.73 0 0 0-6.375 6.133c.157 2.097 1.54 3.92 3.457 4.784 1.563.704 3 .594 4.259.121l4.18 6.607a32.638 32.638 0 0 0-8.24 7.866c7.33-8.258 19.272-12.329 31.832-7.984 7.891 2.73 14.153 8.948 16.895 16.835 7.057 20.302-7.824 39.214-27.123 39.214-8.599 0-16.297-3.775-21.593-9.734a32.69 32.69 0 0 0 3.367 3.916l-9.785 10.073c-1.262-.762-2.817-1.089-4.491-.624-2.157.598-3.804 2.454-4.12 4.669a5.734 5.734 0 0 0 6.608 6.497c2.275-.362 4.142-2.128 4.643-4.376.4-1.792-.07-3.445-1.026-4.712l8.997-10.765c5.774 5.314 13.467 8.573 21.932 8.573 9.013 0 17.165-3.68 23.04-9.616l4.086 4.012a8.279 8.279 0 0 0-1.122 5.429c.501 3.708 3.512 6.685 7.227 7.13a8.337 8.337 0 0 0 9.29-9.356c-.439-3.47-3.809-6.791-7.283-7.19a8.303 8.303 0 0 0-6.152 1.75l-4.462-3.501c4.858-5.67 7.8-13.03 7.8-21.081 0-1.072-.056-2.132-.158-3.178l6.717-.5c.729 2.327 2.875 4.026 5.442 4.026a5.73 5.73 0 0 0 5.689-6.408"/>
            <path fill="#FFF" fill-rule="nonzero" d="M435.34 371.354l3.43-13.363c.357-1.592.769-2.964 1.098-4.5h.11c.356 1.536.713 2.908 1.042 4.5l3.54 13.363h1.866l4.39-20.003h-1.619l-2.414 11.579c-.44 2.168-.851 4.335-1.263 6.53h-.137c-.521-2.195-1.015-4.362-1.536-6.53l-3.074-11.58h-1.618l-3.046 11.58c-.522 2.168-1.043 4.335-1.537 6.53h-.11a457.24 457.24 0 0 0-1.344-6.53l-2.415-11.58h-1.7l4.472 20.004h1.865zm24.211.356c2.113 0 3.485-.686 4.665-1.426l-.604-1.18c-1.097.768-2.332 1.262-3.896 1.262-3.155 0-5.268-2.497-5.35-6.064h10.371a7.59 7.59 0 0 0 .083-1.153c0-4.28-2.113-6.804-5.653-6.804-3.32 0-6.42 2.963-6.42 7.71 0 4.802 3.045 7.655 6.804 7.655zm3.814-8.67h-9c.302-3.348 2.442-5.324 4.83-5.324 2.552 0 4.17 1.784 4.17 5.324zm6.815 8.67c.521 0 .796-.082 1.07-.164l-.247-1.262c-.302.054-.411.054-.521.054-.384 0-.659-.301-.659-.987V349.54h-1.591v19.646c0 1.701.63 2.524 1.948 2.524zm10.382 0c1.838 0 3.402-.795 4.664-1.893l-.768-1.097c-.988.878-2.305 1.618-3.814 1.618-3.073 0-5.104-2.551-5.104-6.283s2.223-6.311 5.131-6.311c1.372 0 2.442.631 3.348 1.482l.905-1.098c-1.015-.905-2.332-1.783-4.28-1.783-3.622 0-6.778 2.826-6.778 7.71 0 4.857 2.882 7.655 6.696 7.655zm12.549 0c3.54 0 6.613-2.798 6.613-7.655 0-4.884-3.073-7.71-6.613-7.71-3.54 0-6.613 2.826-6.613 7.71 0 4.857 3.073 7.655 6.613 7.655zm0-1.372c-2.854 0-4.94-2.551-4.94-6.283s2.086-6.311 4.94-6.311c2.854 0 4.966 2.58 4.966 6.31 0 3.733-2.112 6.284-4.966 6.284zm12 1.016v-10.949c1.537-1.756 2.936-2.634 4.226-2.634 2.168 0 3.156 1.4 3.156 4.445v9.138h1.591v-10.949c1.564-1.756 2.909-2.634 4.226-2.634 2.14 0 3.155 1.4 3.155 4.445v9.138h1.592v-9.357c0-3.76-1.455-5.652-4.39-5.652-1.702 0-3.293 1.18-4.94 2.963-.521-1.784-1.7-2.963-4.033-2.963-1.647 0-3.293 1.152-4.61 2.606h-.055l-.192-2.222h-1.317v14.625h1.591zm28.327.356c2.113 0 3.485-.686 4.665-1.426l-.604-1.18c-1.097.768-2.332 1.262-3.896 1.262-3.156 0-5.268-2.497-5.35-6.064h10.371a7.59 7.59 0 0 0 .083-1.153c0-4.28-2.113-6.804-5.653-6.804-3.32 0-6.42 2.963-6.42 7.71 0 4.802 3.045 7.655 6.804 7.655zm3.814-8.67h-9c.302-3.348 2.442-5.324 4.83-5.324 2.551 0 4.17 1.784 4.17 5.324zm14.59 8.67c.658 0 1.591-.247 2.442-.548l-.384-1.235c-.522.22-1.235.411-1.784.411-1.948 0-2.442-1.207-2.442-3.045v-9.22h4.198v-1.344h-4.198v-4.226h-1.344l-.193 4.226-2.332.137v1.207h2.278v9.11c0 2.716.878 4.527 3.759 4.527zm10.107 0c3.54 0 6.613-2.798 6.613-7.655 0-4.884-3.073-7.71-6.613-7.71-3.54 0-6.613 2.826-6.613 7.71 0 4.857 3.073 7.655 6.613 7.655zm0-1.372c-2.854 0-4.939-2.551-4.939-6.283s2.085-6.311 4.939-6.311 4.966 2.58 4.966 6.31c0 3.733-2.112 6.284-4.966 6.284zm26.937 1.016v-1.427h-9.11V351.35h-1.646v20.003h10.756zm7.775.356c3.924 0 6.476-2.36 6.476-5.433 0-3.045-1.921-4.307-4.199-5.323l-2.99-1.317c-1.455-.63-3.403-1.482-3.403-3.759 0-2.058 1.701-3.402 4.253-3.402 1.976 0 3.54.795 4.72 2.003l.933-1.07c-1.263-1.372-3.238-2.415-5.653-2.415-3.402 0-5.927 2.058-5.927 5.021 0 2.936 2.278 4.198 4.061 4.994l2.991 1.317c1.976.878 3.54 1.647 3.54 4.061 0 2.278-1.839 3.842-4.802 3.842-2.277 0-4.335-1.016-5.79-2.662l-1.015 1.153c1.592 1.783 3.896 2.99 6.805 2.99zm11.781-.356V351.35h-1.646v20.003h1.646zm10.629.356c3.923 0 6.475-2.36 6.475-5.433 0-3.045-1.92-4.307-4.198-5.323l-2.99-1.317c-1.455-.63-3.403-1.482-3.403-3.759 0-2.058 1.7-3.402 4.253-3.402 1.975 0 3.54.795 4.72 2.003l.932-1.07c-1.262-1.372-3.238-2.415-5.652-2.415-3.403 0-5.927 2.058-5.927 5.021 0 2.936 2.277 4.198 4.06 4.994l2.992 1.317c1.975.878 3.54 1.647 3.54 4.061 0 2.278-1.839 3.842-4.802 3.842-2.278 0-4.336-1.016-5.79-2.662l-1.015 1.153c1.591 1.783 3.896 2.99 6.805 2.99z" opacity=".5"/>
        </g>
    </g>
</svg>
