<svg xmlns="http://www.w3.org/2000/svg" xmlns:xlink="http://www.w3.org/1999/xlink" width="180" height="81" viewBox="0 0 180 81">
    <defs>
        <path id="a" d="M.36.295h75.262V80.89H.36z"/>
    </defs>
    <g fill="none" fill-rule="evenodd">
        <path fill="#0A85E0" d="M108.74 55.91V45.424H97.136v10.488h-2.9V33.373h2.9v9.373h11.604v-9.373h2.933v22.538zM144.371 51.687c.936-1.137 1.404-2.651 1.404-4.543 0-1.849-.468-3.347-1.404-4.495-.935-1.147-2.22-1.721-3.857-1.721-1.657 0-2.948.542-3.873 1.626-.924 1.084-1.386 2.614-1.386 4.59 0 1.998.462 3.539 1.386 4.623.925 1.083 2.216 1.625 3.873 1.625 1.637 0 2.922-.568 3.857-1.705m-.207-12.64c.968.426 1.801 1.02 2.503 1.785.68.765 1.216 1.685 1.61 2.758.393 1.073.59 2.258.59 3.554 0 1.296-.197 2.481-.59 3.554-.394 1.074-.93 2.004-1.61 2.79a7.406 7.406 0 0 1-2.503 1.785c-.966.425-2.034.638-3.203.638-1.084 0-3.045-.176-4.116-.658-1.393-.626-2.411-1.734-2.77-2.158-.36-.424-1.562-1.825-1.562-5.612v-14.78h2.902v8.034a8.039 8.039 0 0 1 2.518-1.721 7.554 7.554 0 0 1 3.028-.606c1.17 0 2.237.212 3.203.637M126.412 38.952v9.882c0 1.509-.355 2.614-1.067 3.315-.713.701-1.946.949-3.252.949-1.306 0-2.54-.248-3.251-.95-.713-.7-1.068-1.805-1.068-3.314v-9.882h-2.901v10.87c0 1.041.17 1.944.51 2.71.34.765.785 1.402 1.339 1.912a5.264 5.264 0 0 0 1.848 1.1 6.384 6.384 0 0 0 2.105.366h2.836c.701 0 1.403-.122 2.104-.366a5.26 5.26 0 0 0 1.85-1.1c.552-.51.998-1.147 1.338-1.913.34-.765.51-1.668.51-2.71v-10.87h-2.9z"/>
        <path fill="#FFF" d="M24.054 51.71h4.255c1.629 0 3.034-.768 4.215-2.305 1.004-1.263 1.756-2.91 2.253-4.941.69-2.819.6-4.768-.271-5.847-.562-.696-1.51-1.044-2.847-1.044h-4.145l-3.46 14.138zm.057-17.842h9.25c3.13 0 5.134 1.198 6.011 3.596.646 1.775.641 3.998-.012 6.67-.713 2.91-1.899 5.363-3.558 7.357-2.155 2.599-4.77 3.898-7.844 3.898h-8.306a.634.634 0 0 1-.616-.785l5.075-20.736zM63.066 51.6l-.927 3.789h15.866l.928-3.788H67.376zM67.406 33.867l-.934 3.816h16.073l.934-3.816zM65.357 42.24l-.92 3.76H77.002l.92-3.76h-8.255zM5.095 33.867L.019 54.608a.63.63 0 0 0 .612.781h15.064l.927-3.788H5.064L6.435 46h8.256l.92-3.761H7.355l1.116-4.557h11.763l.933-3.816H5.095zM62.11 40.62c.278-1.811-.102-3.394-1.144-4.749-1.33-1.665-3.46-2.498-6.389-2.498-3.349 0-6.232 1.162-8.649 3.487-2.13 2.05-3.585 4.666-4.364 7.85-.865 3.532-.588 6.324.833 8.373 1.314 1.885 3.806 2.827 6.575 2.827 4.554 0 7.02-1.33 9.175-3.992 1.66-2.043 2.845-4.555 3.557-7.535.043-.178.075-.349.112-.523h-8.864l-.873 3.568h4.155c-.386.891-.84 1.677-1.365 2.353-1.181 1.575-2.87 2.362-4.608 2.362-1.739 0-2.958-.597-3.76-1.585-.981-1.226-1.149-3.157-.504-5.792.627-2.563 1.71-4.52 3.25-5.875 1.37-1.19 2.916-1.785 4.636-1.785.733 0 1.394.138 1.986.412.468.256.87.595 1.206 1.016.258.366.446.76.562 1.18.112.367.139.668.08.906h4.393z"/>
        <g transform="translate(104 .15)">
            <mask id="b" fill="#fff">
                <use xlink:href="#a"/>
            </mask>
            <path fill="#0A85E0" d="M75.59 39.836c-.245-2.126-1.959-3.857-4.083-4.12-2.76-.343-5.097 1.702-5.287 4.342l-5.489.87C59.56 32.92 54.84 26.069 48.214 22.02l5.576-8.42a6.768 6.768 0 0 0 3.99.218c2.8-.691 4.917-3.12 5.19-5.99A6.864 6.864 0 0 0 55.64.313c-3.267.23-5.974 2.832-6.325 6.088a6.838 6.838 0 0 0 2.204 5.824l-4.905 8.9A26.585 26.585 0 0 0 34.31 18.12a26.548 26.548 0 0 0-13.687 3.79l-3.095-5.622c1.188-1.018 1.884-2.595 1.601-4.342a4.732 4.732 0 0 0-4.108-3.914 4.72 4.72 0 0 0-5.252 5.052c.13 1.727 1.268 3.229 2.848 3.94 1.287.58 2.471.49 3.508.1l3.443 5.442a26.884 26.884 0 0 0-6.787 6.48c6.038-6.803 15.875-10.156 26.22-6.577 6.5 2.249 11.659 7.371 13.917 13.868 5.814 16.723-6.444 32.301-22.341 32.301-7.083 0-13.425-3.11-17.787-8.018a26.927 26.927 0 0 0 2.774 3.226l-8.06 8.297c-1.04-.628-2.321-.897-3.7-.514C2.027 72.122.67 73.65.409 75.475a4.723 4.723 0 0 0 5.444 5.352c1.874-.298 3.412-1.753 3.825-3.605a4.661 4.661 0 0 0-.846-3.881l7.412-8.868C21 68.851 27.337 71.535 34.31 71.535c7.424 0 14.139-3.03 18.979-7.92l3.365 3.304a6.82 6.82 0 0 0-.924 4.472c.413 3.054 2.893 5.507 5.953 5.873a6.867 6.867 0 0 0 7.653-7.707c-.362-2.859-3.138-5.594-6-5.922a6.84 6.84 0 0 0-5.067 1.442l-3.676-2.885a26.595 26.595 0 0 0 6.425-17.365c0-.883-.046-1.756-.13-2.617l5.533-.412c.6 1.916 2.368 3.316 4.483 3.316a4.72 4.72 0 0 0 4.686-5.278" mask="url(#b)"/>
        </g>
        <path fill="#0A85E0" d="M119.543 63.933l.78.694-7.49 8.864-1.33-1.199z"/>
    </g>
</svg>
