<svg xmlns="http://www.w3.org/2000/svg" xmlns:xlink="http://www.w3.org/1999/xlink" width="80" height="39" viewBox="0 0 80 39">
    <defs>
        <path id="a" d="M.234.313h27.44V8.43H.233z"/>
    </defs>
    <g fill="none" fill-rule="evenodd">
        <path fill="#363D48" d="M46.511 25.103c2.083 0 3.24.312 3.27 1.79.015.815-.507 1.764-1.07 2.227-1.273 1.045-2.392 1.154-8.36 1.154H10.887l5.694-25.281H6.738c-.66 0-.907.202-1.105 1.035L.236 29.724C-.78 34.437 1.51 38.74 6.61 38.74h13.512c3.42 0 8.005-3.969 9.862-7.642.103-.203.168-.336.24-.502 0 0 .043-.054.055.02v.002l-1.5 6.75c-.216.993.27 1.368.713 1.368H44.04c12.327 0 17.149-6.241 17.568-13.734.237-4.205-2.274-6.93-9.357-6.93h-5.435c-1.936 0-3.92-.678-3.92-2.35 0-1.671 2.155-3.127 5.074-3.127h13.246s1.155-4.929 1.388-5.959c.286-1.3-.082-1.676-.972-1.676H45.26c-9.502 0-13.769 6.762-13.769 11.589 0 4.831 3.657 8.544 13.091 8.544l1.93.01z"/>
        <g transform="translate(51.959)">
            <mask id="b" fill="#fff">
                <use xlink:href="#a"/>
            </mask>
            <path fill="#363D48" d="M.234.313h27.44L13.56 8.43s.568-2.66.74-3.453c.178-.839-.062-1.471-1.122-1.712L.234.313" mask="url(#b)"/>
        </g>
    </g>
</svg>
